<svg width="87" height="53" viewBox="0 0 87 53" fill="none" xmlns="http://www.w3.org/2000/svg">
<g opacity="0.8">
<path d="M12.2865 50C10.8785 50 9.57717 49.6587 8.3825 48.976C7.2305 48.2507 6.29183 47.312 5.5665 46.16C4.88383 44.9653 4.5425 43.664 4.5425 42.256V31.824L1.5345 29.968V23.824L4.5425 22.224V11.728C4.5425 10.2773 4.88383 8.976 5.5665 7.824C6.29183 6.62933 7.2305 5.69066 8.3825 5.008C9.57717 4.28267 10.8785 3.92 12.2865 3.92H14.1425V9.232H12.2865C11.6038 9.232 11.0065 9.488 10.4945 10C10.0252 10.4693 9.7905 11.0453 9.7905 11.728V22.672L4.4145 26.96L9.7905 31.376V42.256C9.7905 42.9387 10.0252 43.536 10.4945 44.048C11.0065 44.5173 11.6038 44.752 12.2865 44.752H14.1425V50H12.2865ZM22.2105 50V3.856H27.3945V44.816H68.2905V50H22.2105ZM71.7015 50V44.752H73.5575C74.2402 44.752 74.8162 44.5173 75.2855 44.048C75.7975 43.536 76.0535 42.9387 76.0535 42.256V31.44L81.4295 27.024L76.0535 22.8V11.728C76.0535 11.0453 75.7975 10.4693 75.2855 10C74.8162 9.488 74.2402 9.232 73.5575 9.232H71.7015V3.92H73.5575C74.9655 3.92 76.2455 4.28267 77.3975 5.008C78.5922 5.69066 79.5308 6.62933 80.2135 7.824C80.9388 8.976 81.3015 10.2773 81.3015 11.728V22.224L84.2455 23.952V30.032L81.3015 31.888V42.256C81.3015 43.664 80.9388 44.9653 80.2135 46.16C79.5308 47.312 78.5922 48.2507 77.3975 48.976C76.2455 49.6587 74.9655 50 73.5575 50H71.7015Z" fill="#FF8A00"/>
<path d="M35.856 38V19.408C35.856 18.5973 36.0587 17.8613 36.464 17.2C36.8693 16.5173 37.4027 15.9733 38.064 15.568C38.7467 15.1627 39.4933 14.96 40.304 14.96H54.416C55.2267 14.96 55.9733 15.1627 56.656 15.568C57.3387 15.9733 57.8827 16.5173 58.288 17.2C58.6933 17.8613 58.896 18.5973 58.896 19.408V38H54.64V30.256H40.08V38H35.856ZM40.08 26.032H54.64V19.6C54.64 19.4933 54.5973 19.408 54.512 19.344C54.4267 19.2587 54.3307 19.216 54.224 19.216H40.464C40.3573 19.216 40.2613 19.2587 40.176 19.344C40.112 19.408 40.08 19.4933 40.08 19.6V26.032Z" fill="#FF8A00"/>
</g>
</svg>